<?xml version="1.0" encoding="utf-8" standalone="no"?>
<!DOCTYPE svg PUBLIC "-//W3C//DTD SVG 20010904//EN" "http://www.w3.org/TR/2001/REC-SVG-20010904/DTD/svg10.dtd">
<svg xmlns="http://www.w3.org/2000/svg" width="649" height="269" xmlns:xlink="http://www.w3.org/1999/xlink">
    <source>
        <![CDATA[Client->Server: JSON(Image Data, Transforms)
Note right of Server: Transform Processing
Server-->Client: Tranformed Image
]]>
    </source>
    <desc></desc>
    <defs>
        <marker viewBox="0 0 5 5" markerWidth="5" markerHeight="5" orient="auto" refX="5" refY="2.5" id="markerArrowBlock">
            <path d="M 0 0 L 5 2.5 L 0 5 z"></path>
        </marker>
        <marker viewBox="0 0 9.6 16" markerWidth="4" markerHeight="16" orient="auto" refX="9.6" refY="8" id="markerArrowOpen">
            <path d="M 9.6,8 1.92,16 0,13.7 5.76,8 0,2.286 1.92,0 9.6,8 z"></path>
        </marker>
    </defs>
    <g class="title"></g>
    <g class="actor">
        <path d="M10,20C40.6,17.1 46.6,22.9 81.7,20.0C83.1,39.0 80.2,28.8 81.7,56.5C59.7,59.4 52.1,53.6 10.0,56.5C11.5,31.3 8.5,33.0 10.0,20.0" stroke="#000000" fill="#ffffff" style="stroke-width: 2;"></path>
        <text x="20" y="43.5" style="font-size: 16px; font-family: danielbd;">
            <tspan x="20">Client</tspan>
        </text>
    </g>
    <g class="actor">
        <path d="M10,212.5C33.5,215.4 21.5,209.6 81.7,212.5C83.1,238.6 80.2,221.3 81.7,249.0C64.5,251.9 70.2,246.1 10.0,249.0C8.5,235.3 11.5,221.3 10.0,212.5" stroke="#000000" fill="#ffffff" style="stroke-width: 2;"></path>
        <text x="20" y="236" style="font-size: 16px; font-family: danielbd;">
            <tspan x="20">Client</tspan>
        </text>
    </g>
    <path d="M45.8,56.5C39.6,117.7 52.1,126.4 45.8,212.5" stroke="#000000" fill="none" style="stroke-width: 2;"></path>
    <g class="actor">
        <path d="M303.0625,20C346.6,23.1 367.8,16.9 381.0,20.0C382.4,30.5 379.5,42.1 381.0,56.5C362.3,53.4 331.3,59.6 303.1,56.5C301.6,50.7 304.5,47.7 303.1,20.0" stroke="#000000" fill="#ffffff" style="stroke-width: 2;"></path>
        <text x="313.5625" y="43.25" style="font-size: 16px; font-family: danielbd;">
            <tspan x="313.0625">Server</tspan>
        </text>
    </g>
    <g class="actor">
        <path d="M303.0625,212.5C325.2,215.6 315.5,209.4 381.0,212.5C379.5,234.1 382.4,233.3 381.0,249.0C321.8,252.1 362.3,245.9 303.1,249.0C304.5,230.2 301.6,243.2 303.1,212.5" stroke="#000000" fill="#ffffff" style="stroke-width: 2;"></path>
        <text x="313.5625" y="235.75" style="font-size: 16px; font-family: danielbd;">
            <tspan x="313.0625">Server</tspan>
        </text>
    </g>
    <path d="M342.0,56.5C348.3,93.9 335.8,134.1 342.0,212.5" stroke="#000000" fill="none" style="stroke-width: 2;"></path>
    <g class="signal">
        <text x="55.828125" y="84.25" style="font-size: 16px; font-family: danielbd;">
            <tspan x="55.828125">JSON(Image Data, Transforms)</tspan>
        </text>
        <path d="M45.8,99.0C197.6,87.2 93.2,110.8 342.0,99.0" stroke="#000000" fill="none" style="stroke-width: 2; marker-end: url(&quot;#markerArrowBlock&quot;);"></path>
    </g>
    <g class="note">
        <path d="M362.015625,119C498.9,126.9 512.6,111.1 560.2,119.0C558.9,126.0 561.4,134.3 560.2,150.5C393.7,158.4 459.2,142.6 362.0,150.5C363.3,135.5 360.8,124.0 362.0,119.0" stroke="#000000" fill="#ffffff" style="stroke-width: 2;"></path>
        <text x="367.015625" y="137" style="font-size: 16px; font-family: danielbd;">
            <tspan x="367.015625">Transform Processing</tspan>
        </text>
    </g>
    <g class="signal">
        <text x="114.1015625" y="178" style="font-size: 16px; font-family: danielbd;">
            <tspan x="114.1015625">Tranformed Image</tspan>
        </text>
        <path d="M342.0,192.5C138.2,204.3 233.9,180.7 45.8,192.5" stroke="#000000" fill="none" style="stroke-width: 2; stroke-dasharray: 6, 2; marker-end: url(&quot;#markerArrowBlock&quot;);"></path>
    </g>
</svg>